<svg width="800" height="800" viewBox="0 0 800 800" fill="none" xmlns="http://www.w3.org/2000/svg">
<rect width="800" height="800" fill="#E5E5E5"/>
<path d="M0 0V800C174.312 538.168 267.814 423.927 411 402.5C625.326 320.194 700.526 220.101 800 0H0Z" fill="#55C19B"/>
<path d="M0 0V800C174.312 538.168 267.814 423.927 411 402.5C625.326 320.194 700.526 220.101 800 0H0Z" fill="url(#paint0_linear)"/>
<path d="M198.984 -6.54632e-06H217.341C209.265 12.2371 198.113 22.1152 185.012 28.6347C163.235 39.3245 138.133 38.986 113.85 38.6473C84.99 38.2602 57.7681 37.8734 40.0378 56.2538C20.5728 76.4723 23.3191 108.832 25.9692 140.127C26.2583 143.803 26.5953 147.479 26.8844 151.107C29.2454 182.498 21.3438 217.47 0 234.447V213.261C10.4068 197.735 14.0685 173.985 12.4303 152.171C12.1894 148.64 11.8521 145.012 11.5631 141.384C8.76881 108.444 5.58876 71.1033 29.6307 46.1928C51.6973 23.2657 83.4 23.7011 114.043 24.1363C136.639 24.4749 159.958 24.7651 178.652 15.5747C186.375 11.762 193.282 6.47136 198.984 -6.54632e-06Z" fill="#87ABCC"/>
<path d="M325.37 -0.000171901H346.821C342.243 3.51581 338.008 7.45935 334.172 11.7775C312.288 36.6843 307.478 72.4519 302.765 107.012C302.187 111.501 301.563 115.894 300.937 120.286C292.905 176.327 273.715 211.081 242.404 226.479C220.665 237.146 195.607 236.808 171.366 236.47C142.557 236.084 115.382 235.698 97.6832 254.04C78.2522 274.217 80.9937 306.509 83.6392 337.739C83.9278 341.407 84.2641 345.076 84.5527 348.696C87.5826 388.953 73.6832 435.146 36.1202 441.469C23.2302 443.641 11.3987 440.407 0 435.629V419.796C11.4469 425.106 22.509 429.064 33.7154 427.182C62.3805 422.403 72.6731 383.691 70.1239 349.758C69.8835 346.234 69.5467 342.614 69.2582 338.994C66.4688 306.123 63.2943 268.859 87.2942 244C109.322 221.121 140.97 221.555 171.559 221.99C194.116 222.327 217.394 222.617 236.055 213.446C262.797 200.317 279.342 169.183 286.653 118.211C287.278 113.867 287.903 109.474 288.48 105.082C293.434 68.3971 298.58 30.4094 323.35 2.17201C323.975 1.44786 324.649 0.723785 325.37 -0.000171901Z" fill="#87ABCC"/>
<path d="M590.345 0.000549316H620.075C601.542 17.3847 576.107 31.9279 544.302 43.052C537.545 45.4116 530.643 47.675 523.741 49.9382C485.951 62.4107 446.906 75.3165 421.954 106.04C395.313 138.882 389.425 185.931 383.73 231.438C383.006 237.265 382.282 243.092 381.51 248.87C371.712 322.645 348.401 368.345 310.273 388.619C283.776 402.68 253.274 402.247 223.785 401.814C188.746 401.284 155.637 400.754 134.112 424.928C110.463 451.462 113.793 493.984 117.027 535.061C117.413 539.925 117.799 544.74 118.137 549.46C121.805 602.479 104.912 663.3 59.207 671.583C36.813 675.676 16.9766 665.227 -2.23212 655.162C-13.2363 649.383 -23.7093 643.894 -34.472 641.1C-56.6249 635.225 -81.577 642.497 -99 658.629V635.033C-89.0887 628.223 -77.8417 623.591 -66.0026 621.441C-54.1634 619.291 -42.0017 619.672 -30.3214 622.561C-17.7248 625.883 -5.94847 632.047 5.44188 638.018C22.9132 647.216 39.4191 655.836 56.3113 652.802C91.1572 646.446 103.706 595.545 100.617 550.905C100.279 546.233 99.8929 541.466 99.5554 536.699C96.1286 493.454 92.3159 444.432 121.515 411.686C148.301 381.588 186.815 382.166 224.026 382.744C251.488 383.129 279.819 383.563 302.551 371.524C335.032 354.236 355.206 313.207 364.135 246.126C364.907 240.443 365.631 234.664 366.355 228.886C372.388 180.537 378.613 130.6 408.778 93.4713C437.061 58.6546 478.519 44.9303 518.625 31.7357C525.479 29.4722 532.236 27.2089 538.944 24.8973C557.053 18.7744 574.321 10.4103 590.345 0.000549316Z" fill="#87ABCC"/>
<path d="M597.884 222.312C585.483 202.79 580.098 179.206 582.707 155.84C585.315 132.473 595.744 110.87 612.102 94.9478C628.46 79.0259 649.663 69.8396 671.868 69.0548C694.072 68.27 715.807 75.9385 733.131 90.6698C750.455 105.401 762.22 126.22 766.294 149.35C770.368 172.481 766.48 196.392 755.335 216.747C744.191 237.102 726.528 252.554 705.55 260.3C684.571 268.045 661.666 267.573 640.989 258.967C639.648 264.034 637.142 268.671 633.695 272.461C630.247 276.251 625.966 279.077 621.235 280.685C616.503 282.293 611.469 282.634 606.583 281.676C601.697 280.719 597.112 278.493 593.237 275.198C589.362 271.903 586.319 267.642 584.381 262.796C582.443 257.951 581.669 252.672 582.129 247.432C582.59 242.192 584.27 237.154 587.019 232.77C589.769 228.387 593.502 224.794 597.884 222.312Z" fill="#6C63FF"/>
<path d="M637.751 175.773C643.689 175.773 648.502 170.675 648.502 164.386C648.502 158.098 643.689 153 637.751 153C631.813 153 627 158.098 627 164.386C627 170.675 631.813 175.773 637.751 175.773Z" fill="white"/>
<path d="M674.751 175.773C680.689 175.773 685.502 170.675 685.502 164.386C685.502 158.098 680.689 153 674.751 153C668.813 153 664 158.098 664 164.386C664 170.675 668.813 175.773 674.751 175.773Z" fill="white"/>
<path d="M711.751 175.773C717.689 175.773 722.502 170.675 722.502 164.386C722.502 158.098 717.689 153 711.751 153C705.813 153 701 158.098 701 164.386C701 170.675 705.813 175.773 711.751 175.773Z" fill="white"/>
<path d="M319.904 510.494L180.871 480.503L179.064 480.114C178.144 479.914 177.186 479.978 176.301 480.298C175.415 480.619 174.638 481.182 174.059 481.925C173.479 482.667 173.121 483.558 173.026 484.494C172.93 485.431 173.101 486.376 173.518 487.22L228.72 599.321C229.077 600.042 229.602 600.665 230.251 601.14C230.9 601.615 231.653 601.927 232.448 602.051C233.245 602.175 234.06 602.103 234.823 601.841C235.586 601.579 236.273 601.136 236.827 600.549L275.168 560.121C275.441 559.826 275.772 559.591 276.14 559.43C276.508 559.269 276.906 559.186 277.307 559.187C277.853 559.179 278.391 559.32 278.863 559.594C279.335 559.869 279.723 560.267 279.987 560.745L287.84 575.271C288.342 576.24 289.153 577.013 290.144 577.467C291.136 577.921 292.251 578.031 293.312 577.778L293.351 577.77C294.424 577.542 295.391 576.96 296.094 576.117C296.797 575.274 297.196 574.22 297.228 573.122L298.801 539.591C298.82 539.172 298.924 538.762 299.108 538.386C299.305 538.013 299.573 537.683 299.896 537.412L322.016 519.255C322.743 518.658 323.287 517.869 323.586 516.977C323.885 516.085 323.927 515.127 323.706 514.212C323.486 513.298 323.012 512.464 322.34 511.807C321.667 511.149 320.823 510.694 319.904 510.494H319.904ZM320.753 517.711L298.633 535.869C298.345 536.101 298.084 536.365 297.854 536.656L180.62 483.487C180.516 483.439 180.408 483.402 180.297 483.374C179.845 483.258 179.367 483.303 178.944 483.502C178.522 483.701 178.182 484.042 177.984 484.464C177.786 484.887 177.742 485.366 177.86 485.818C177.977 486.27 178.249 486.667 178.628 486.939L275.022 557.747C274.533 558.001 274.091 558.338 273.716 558.742L235.375 599.17C235.042 599.52 234.63 599.785 234.173 599.941C233.716 600.098 233.228 600.142 232.751 600.07C232.273 599.997 231.82 599.811 231.43 599.526C231.04 599.241 230.725 598.866 230.51 598.434L175.309 486.332C175.062 485.826 174.963 485.26 175.022 484.7C175.081 484.139 175.296 483.607 175.643 483.163C175.99 482.719 176.454 482.381 176.984 482.188C177.513 481.996 178.086 481.955 178.637 482.072L180.487 482.472L319.476 512.453C320.028 512.572 320.535 512.845 320.939 513.239C321.344 513.633 321.629 514.134 321.762 514.682C321.895 515.231 321.871 515.806 321.693 516.342C321.514 516.878 321.188 517.352 320.753 517.711V517.711Z" fill="#6C63FF"/>
<path d="M319.904 510.494L180.871 480.503L179.064 480.114C178.144 479.914 177.186 479.978 176.301 480.298C175.415 480.619 174.638 481.182 174.059 481.925C173.479 482.667 173.121 483.558 173.026 484.494C172.93 485.431 173.101 486.376 173.518 487.22L228.72 599.321C229.077 600.042 229.602 600.665 230.251 601.14C230.9 601.615 231.653 601.927 232.448 602.051C233.245 602.175 234.06 602.103 234.823 601.841C235.586 601.579 236.273 601.136 236.827 600.549L275.168 560.121C275.441 559.826 275.772 559.591 276.14 559.43C276.508 559.269 276.906 559.186 277.307 559.187C277.853 559.179 278.391 559.32 278.863 559.594C279.335 559.869 279.723 560.267 279.987 560.745L287.84 575.271C288.342 576.24 289.153 577.013 290.144 577.467C291.136 577.921 292.251 578.031 293.312 577.778L293.351 577.77C294.424 577.542 295.391 576.96 296.094 576.117C296.797 575.274 297.196 574.22 297.228 573.122L298.801 539.591C298.82 539.172 298.924 538.762 299.108 538.386C299.305 538.013 299.573 537.683 299.896 537.412L322.016 519.255C322.743 518.658 323.287 517.869 323.586 516.977C323.885 516.085 323.927 515.127 323.706 514.212C323.486 513.298 323.012 512.464 322.34 511.807C321.667 511.149 320.823 510.694 319.904 510.494H319.904ZM320.753 517.711L298.633 535.869C298.345 536.101 298.084 536.365 297.854 536.656C297.648 536.914 297.469 537.194 297.322 537.49C297.168 537.794 297.046 538.112 296.959 538.441L296.962 538.451C296.87 538.794 296.817 539.145 296.804 539.5L295.231 573.031C295.218 573.691 294.981 574.326 294.559 574.833C294.137 575.339 293.555 575.687 292.909 575.819L292.889 575.823C292.252 575.982 291.581 575.92 290.984 575.649C290.386 575.377 289.898 574.912 289.598 574.329L281.743 559.793C281.338 559.045 280.749 558.413 280.031 557.957C279.314 557.501 278.492 557.236 277.643 557.187L277.633 557.189C277.519 557.184 277.405 557.178 277.294 557.182C276.502 557.183 275.722 557.376 275.022 557.747C274.533 558.001 274.091 558.338 273.716 558.742L235.375 599.17C235.042 599.52 234.63 599.785 234.173 599.941C233.716 600.098 233.228 600.142 232.751 600.07C232.273 599.997 231.82 599.811 231.43 599.526C231.04 599.241 230.725 598.866 230.511 598.434L175.309 486.332C175.062 485.826 174.963 485.26 175.022 484.7C175.081 484.139 175.296 483.607 175.643 483.163C175.99 482.719 176.454 482.381 176.984 482.188C177.513 481.996 178.086 481.955 178.637 482.072L180.487 482.472L319.476 512.453C320.028 512.572 320.535 512.845 320.939 513.239C321.344 513.633 321.629 514.134 321.762 514.682C321.895 515.231 321.871 515.806 321.693 516.342C321.514 516.878 321.188 517.352 320.753 517.711V517.711Z" fill="#3F3D56"/>
<path d="M298.299 536.855L297.473 538.677L296.962 538.451L296.96 538.442L179.818 485.325L277.634 557.19L277.644 557.188L277.903 557.386L276.723 558.999L275.022 557.747L178.629 486.94C178.25 486.667 177.978 486.27 177.86 485.819C177.743 485.367 177.787 484.888 177.985 484.465C178.183 484.042 178.522 483.702 178.945 483.503C179.367 483.303 179.846 483.258 180.298 483.375C180.409 483.402 180.517 483.44 180.62 483.488L297.855 536.656L298.299 536.855Z" fill="#3F3D56"/>
<path d="M211.185 84.8551L89.3106 138.608C83.9279 140.99 79.6961 145.44 77.5435 150.983C75.3909 156.526 75.4935 162.709 77.8285 168.175L115.672 256.496C118.02 261.957 122.406 266.25 127.869 268.434C133.333 270.618 139.427 270.514 144.815 268.145L266.689 214.392C272.072 212.01 276.304 207.56 278.457 202.017C280.609 196.474 280.507 190.291 278.172 184.825L240.328 96.5044C237.98 91.0434 233.594 86.7499 228.13 84.566C222.667 82.3821 216.573 82.4861 211.185 84.8551ZM216.231 96.6312C216.96 96.3132 217.725 96.0896 218.509 95.9656L177.305 174.838L92.6755 151.341C93.2024 150.965 93.7656 150.645 94.3565 150.384L216.231 96.6312ZM261.643 202.616L139.769 256.369C137.46 257.384 134.848 257.429 132.507 256.493C130.165 255.557 128.285 253.717 127.279 251.376L89.7754 163.849L178.853 188.581C180.24 188.966 181.715 188.86 183.035 188.281C184.355 187.702 185.441 186.684 186.114 185.395L229.242 102.84L266.564 189.944C267.565 192.287 267.609 194.937 266.686 197.312C265.764 199.688 263.95 201.595 261.643 202.616Z" fill="#78769C"/>
<defs>
<linearGradient id="paint0_linear" x1="-73.6" y1="800" x2="849.6" y2="2.35937e-05" gradientUnits="userSpaceOnUse">
<stop stop-color="#6CA75E"/>
<stop offset="1" stop-color="white" stop-opacity="0"/>
</linearGradient>
</defs>
</svg>
