<svg width="496" height="512" viewBox="0 0 496 512" fill="none" xmlns="http://www.w3.org/2000/svg">
<path d="M458.137 193.904C460.527 185.358 461.735 176.536 461.735 167.575C461.735 113.749 417.937 69.958 364.102 69.958C360.231 69.958 356.393 70.18 352.62 70.621C344.896 51.405 332.112 34.814 315.285 22.279C295.718 7.704 272.446 0 247.985 0C223.525 0 200.254 7.704 180.687 22.279C163.86 34.814 151.076 51.403 143.352 70.618C139.587 70.18 135.748 69.958 131.869 69.958C78.051 69.958 34.265 113.749 34.265 167.575C34.265 176.536 35.473 185.358 37.863 193.904C14.304 208.615 0 234.144 0 262.42C0 307.009 36.271 343.285 80.854 343.285H96.164V375.804C96.164 387.477 105.659 396.973 117.33 396.973H121.281C123.968 406.249 127.673 415.187 132.354 423.679L129.582 426.452C125.577 430.431 123.367 435.743 123.357 441.408C123.348 447.087 125.55 452.423 129.554 456.427L151.717 478.622C159.99 486.843 173.419 486.831 181.64 478.61L184.465 475.795C192.949 480.468 201.877 484.167 211.146 486.851V490.804C211.146 502.492 220.654 512 232.34 512H263.658C275.345 512 284.852 502.491 284.852 490.804V486.848C294.102 484.164 303.025 480.467 311.517 475.797L314.318 478.6C322.578 486.86 336.016 486.859 344.276 478.599L366.463 456.409C374.681 448.136 374.671 434.708 366.44 426.475L363.637 423.671C368.305 415.18 372.009 406.245 374.706 396.973H378.641C390.328 396.973 399.835 387.477 399.835 375.804V343.285H415.145C459.728 343.285 495.999 307.009 495.999 262.42C496 234.144 481.696 208.615 458.137 193.904V193.904ZM379.836 375.804C379.836 376.427 379.277 376.973 378.642 376.973H366.965C362.291 376.973 358.24 380.21 357.211 384.77C354.396 397.231 349.491 409.062 342.635 419.933C340.143 423.884 340.718 429.035 344.022 432.338L352.297 440.615C352.735 441.053 352.724 441.862 352.298 442.291L330.135 464.457C329.867 464.725 329.532 464.781 329.299 464.781C329.065 464.781 328.73 464.724 328.463 464.458L320.188 456.181C316.883 452.877 311.731 452.301 307.78 454.794C296.897 461.66 285.083 466.554 272.666 469.339C268.1 470.363 264.854 474.417 264.854 479.097V490.804C264.854 491.43 264.285 492 263.66 492H232.342C231.705 492 231.148 491.441 231.148 490.804V479.097C231.148 474.415 227.901 470.361 223.333 469.338C210.892 466.553 199.082 461.661 188.232 454.8C184.284 452.303 179.134 452.871 175.827 456.169L167.512 464.457C167.067 464.9 166.274 464.89 165.844 464.462L143.705 442.291C143.419 442.005 143.359 441.671 143.359 441.44C143.36 441.12 143.468 440.849 143.704 440.615L151.98 432.338C155.288 429.03 155.86 423.87 153.358 419.918C146.482 409.059 141.583 397.239 138.796 384.788C137.774 380.22 133.719 376.973 129.037 376.973H117.33C116.698 376.973 116.164 376.438 116.164 375.804V343.285H162.747C161.662 348.802 161.095 354.43 161.095 360.129C161.095 408.047 200.074 447.031 247.986 447.031C295.914 447.031 334.906 408.047 334.906 360.129C334.906 354.444 334.334 348.817 333.238 343.285H379.837V375.804H379.836ZM415.146 323.285H292.879C287.357 323.285 282.879 327.763 282.879 333.285C282.879 338.807 287.357 343.285 292.879 343.285H312.733C314.168 348.779 314.906 354.418 314.906 360.129C314.906 397.019 284.885 427.031 247.986 427.031C211.102 427.031 181.095 397.018 181.095 360.129C181.095 354.393 181.826 348.754 183.246 343.285H203.093C208.615 343.285 213.093 338.807 213.093 333.285C213.093 327.763 208.615 323.285 203.093 323.285H80.854C47.299 323.285 20 295.981 20 262.42C20 238.905 33.144 217.914 54.303 207.637C58.955 205.377 61.117 199.942 59.287 195.104C55.955 186.296 54.266 177.035 54.266 167.576C54.266 124.778 89.078 89.959 131.87 89.959C137.384 89.959 142.761 90.514 147.853 91.606C152.894 92.689 157.934 89.758 159.488 84.84C171.736 46.058 207.301 20 247.985 20C288.671 20 324.235 46.057 336.483 84.84C338.035 89.754 343.067 92.687 348.108 91.608C353.233 90.513 358.614 89.959 364.101 89.959C406.908 89.959 441.734 124.778 441.734 167.576C441.734 177.035 440.045 186.297 436.713 195.104C434.883 199.942 437.045 205.377 441.697 207.637C462.856 217.914 476 238.905 476 262.42C476 295.981 448.701 323.285 415.146 323.285V323.285Z" fill="#7C08B3"/>
<path d="M353.613 141.875C348.091 141.875 343.613 146.353 343.613 151.875V250.519C343.613 256.041 348.091 260.519 353.613 260.519C359.135 260.519 363.613 256.041 363.613 250.519V151.875C363.613 146.353 359.136 141.875 353.613 141.875Z" fill="#7C08B3"/>
<path d="M273.974 141.875H246C240.567 141.875 236 146.426 236 151.875V252.333C236 257.855 240.478 262.333 246 262.333C251.522 262.333 256 257.855 256 252.333V218.645C262.22 218.607 269.864 218.567 273.974 218.567C295.428 218.567 312.882 201.365 312.882 180.221C312.882 159.077 295.428 141.875 273.974 141.875V141.875ZM273.974 198.566C269.882 198.566 262.348 198.605 256.148 198.643C256.118 192.252 256.086 184.409 256.086 180.22C256.086 176.67 256.061 168.531 256.037 161.874H273.975C284.224 161.874 292.883 170.275 292.883 180.22C292.883 190.165 284.223 198.566 273.974 198.566Z" fill="#7C08B3"/>
<path d="M167.241 149.761C167.215 149.692 167.188 149.622 167.16 149.554C165.278 144.885 160.814 141.867 155.788 141.867C150.762 141.867 146.298 144.885 144.416 149.554C144.392 149.614 144.368 149.673 144.346 149.733L106.623 248.774C104.657 253.935 107.247 259.712 112.408 261.678C117.57 263.644 123.346 261.054 125.312 255.893L132.252 237.672H179.046L185.913 255.864C187.424 259.868 191.229 262.336 195.27 262.336C196.443 262.336 197.636 262.128 198.799 261.689C203.966 259.739 206.573 253.969 204.623 248.802L167.241 149.761ZM139.87 217.672L155.755 175.966L171.497 217.672H139.87Z" fill="#7C08B3"/>
<path d="M247.985 323.285C242.463 323.285 237.985 327.763 237.985 333.285C237.985 338.807 242.463 343.285 247.985 343.285H248.043C253.565 343.285 258.015 338.807 258.015 333.285C258.015 327.763 253.508 323.285 247.985 323.285V323.285Z" fill="#7C08B3"/>
</svg>
