<svg width="512" height="512" viewBox="0 0 512 512" fill="none" xmlns="http://www.w3.org/2000/svg">
<g clip-path="url(#clip0)">
<path d="M256 128C229.803 128 0 126.208 0 64C0 1.792 229.803 0 256 0C282.197 0 512 1.792 512 64C512 126.208 282.197 128 256 128ZM33.8773 64C49.4933 76.1173 124.437 96 256 96C387.563 96 462.507 76.1173 478.123 64C462.507 51.8827 387.563 32 256 32C124.437 32 49.4933 51.8827 33.8773 64V64ZM480.576 66.4747H480.789H480.576Z" fill="#129117"/>
<path d="M256 256C229.803 256 0 254.208 0 192C0 183.168 7.168 176 16 176C24.2133 176 30.976 182.187 31.8933 190.165C41.7493 201.963 117.483 224 256 224C394.517 224 470.251 201.963 480.107 190.165C481.024 182.187 487.787 176 496 176C504.832 176 512 183.168 512 192C512 254.208 282.197 256 256 256V256ZM480 191.979C480 192 480 192 480 191.979V191.979ZM32 191.979C32 192 32 192 32 191.979V191.979Z" fill="#129117"/>
<path d="M256 384C229.803 384 0 382.208 0 320C0 311.168 7.168 304 16 304C24.2133 304 30.976 310.187 31.8933 318.165C41.7493 329.963 117.483 352 256 352C394.517 352 470.251 329.963 480.107 318.165C481.024 310.187 487.787 304 496 304C504.832 304 512 311.168 512 320C512 382.208 282.197 384 256 384V384ZM480 319.979C480 320 480 320 480 319.979V319.979ZM32 319.979C32 320 32 320 32 319.979V319.979Z" fill="#129117"/>
<path d="M256 512C229.803 512 0 510.208 0 448V64C0 55.168 7.168 48 16 48C24.832 48 32 55.168 32 64V446.272C42.2613 458.133 117.973 480 256 480C394.027 480 469.739 458.133 480 446.272V64C480 55.168 487.168 48 496 48C504.832 48 512 55.168 512 64V448C512 510.208 282.197 512 256 512Z" fill="#129117"/>
<path d="M106.667 320C118.449 320 128 310.449 128 298.667C128 286.885 118.449 277.333 106.667 277.333C94.8846 277.333 85.3334 286.885 85.3334 298.667C85.3334 310.449 94.8846 320 106.667 320Z" fill="#129117"/>
<path d="M106.667 192C118.449 192 128 182.449 128 170.667C128 158.885 118.449 149.333 106.667 149.333C94.8846 149.333 85.3334 158.885 85.3334 170.667C85.3334 182.449 94.8846 192 106.667 192Z" fill="#129117"/>
<path d="M106.667 448C118.449 448 128 438.449 128 426.667C128 414.885 118.449 405.333 106.667 405.333C94.8846 405.333 85.3334 414.885 85.3334 426.667C85.3334 438.449 94.8846 448 106.667 448Z" fill="#129117"/>
</g>
<defs>
<clipPath id="clip0">
<rect width="512" height="512" fill="white"/>
</clipPath>
</defs>
</svg>
