<svg width="213" height="335" viewBox="0 0 213 335" fill="none" xmlns="http://www.w3.org/2000/svg">
<rect x="7" y="7" width="199" height="321" rx="13" stroke="black" stroke-width="14"/>
<rect x="78" y="3" width="58" height="24" rx="7" stroke="black" stroke-width="6"/>
<path d="M155.604 143.645C153.969 143.1 152.334 142.585 150.699 142.101C150.972 140.98 151.214 139.86 151.456 138.74C155.18 120.697 152.728 106.196 144.463 101.413C136.501 96.8418 123.514 101.595 110.375 113.038C109.073 114.158 107.802 115.339 106.591 116.52C105.773 115.732 104.926 114.945 104.078 114.188C90.3037 101.958 76.499 96.8115 68.2344 101.625C60.3027 106.227 57.9414 119.88 61.2715 136.954C61.6045 138.649 61.9678 140.314 62.3916 142.01C60.4541 142.555 58.5469 143.16 56.7607 143.796C40.5947 149.396 29 158.236 29 167.379C29 176.824 41.3516 186.3 58.1533 192.052C59.5156 192.506 60.8779 192.96 62.2705 193.354C61.8164 195.17 61.4229 196.956 61.0596 198.803C57.8809 215.604 60.3633 228.925 68.2949 233.496C76.4688 238.219 90.2129 233.375 103.594 221.659C104.653 220.721 105.713 219.752 106.772 218.723C108.104 220.024 109.497 221.266 110.89 222.477C123.847 233.617 136.652 238.128 144.554 233.557C152.728 228.834 155.392 214.515 151.94 197.077C151.668 195.745 151.365 194.383 151.032 192.99C152.001 192.718 152.939 192.415 153.878 192.112C171.346 186.33 184 176.976 184 167.379C184 158.206 172.072 149.306 155.604 143.645ZM114.644 117.942C125.905 108.134 136.41 104.289 141.193 107.044C146.31 109.98 148.277 121.848 145.068 137.438C144.856 138.468 144.645 139.467 144.372 140.466C137.651 138.952 130.84 137.862 123.998 137.257C120.062 131.626 115.764 126.237 111.102 121.182C112.282 120.062 113.433 119.002 114.644 117.942ZM79.6172 183.091C81.1611 185.725 82.7354 188.358 84.4004 190.932C79.6777 190.417 74.9854 189.66 70.3535 188.661C71.6855 184.302 73.3506 179.791 75.2881 175.189C76.6807 177.854 78.1035 180.487 79.6172 183.091ZM70.4443 146.672C74.8037 145.703 79.4355 144.916 84.249 144.311C82.6445 146.823 81.0703 149.396 79.5869 152C78.1035 154.573 76.6504 157.207 75.2881 159.871C73.3809 155.36 71.7764 150.94 70.4443 146.672ZM78.7393 167.53C80.7373 163.353 82.917 159.266 85.2178 155.239C87.5186 151.213 90.001 147.308 92.6045 143.463C97.1455 143.13 101.777 142.948 106.5 142.948C111.223 142.948 115.885 143.13 120.396 143.463C122.969 147.277 125.421 151.183 127.752 155.179C130.083 159.175 132.263 163.262 134.321 167.409C132.293 171.587 130.113 175.704 127.782 179.761C125.481 183.787 123.029 187.692 120.456 191.567C115.945 191.9 111.253 192.052 106.5 192.052C101.747 192.052 97.1455 191.9 92.6953 191.628C90.0615 187.783 87.5791 183.848 85.248 179.821C82.917 175.795 80.7676 171.708 78.7393 167.53ZM133.413 183.03C134.957 180.366 136.41 177.672 137.833 174.947C139.771 179.337 141.466 183.787 142.949 188.358C138.257 189.418 133.504 190.235 128.721 190.78C130.355 188.237 131.899 185.634 133.413 183.03ZM137.772 159.871C136.35 157.207 134.896 154.543 133.383 151.939C131.899 149.366 130.355 146.823 128.751 144.311C133.625 144.916 138.287 145.733 142.646 146.732C141.254 151.213 139.619 155.572 137.772 159.871ZM106.561 125.813C109.739 129.265 112.736 132.897 115.521 136.651C109.527 136.379 103.503 136.379 97.5088 136.651C100.476 132.746 103.533 129.113 106.561 125.813ZM71.4434 107.256C76.5293 104.289 87.8213 108.527 99.7188 119.062C100.476 119.729 101.232 120.455 102.02 121.182C97.3271 126.237 92.998 131.626 89.0322 137.257C82.1904 137.862 75.4092 138.922 68.6885 140.405C68.2949 138.861 67.9619 137.287 67.6289 135.713C64.7832 121.061 66.6602 110.011 71.4434 107.256ZM64.0264 187.057C62.7549 186.693 61.5137 186.3 60.2725 185.876C53.8242 183.848 46.498 180.639 41.2002 176.431C38.1426 174.312 36.084 171.042 35.5088 167.379C35.5088 161.839 45.0752 154.755 58.8799 149.941C60.6055 149.336 62.3613 148.791 64.1172 148.276C66.1758 154.846 68.6582 161.294 71.5342 167.53C68.6279 173.857 66.1152 180.396 64.0264 187.057ZM99.3252 216.725C94.3301 221.296 88.5478 224.929 82.251 227.411C78.8906 229.016 75.0156 229.167 71.5645 227.805C66.751 225.02 64.7529 214.333 67.4775 199.953C67.8105 198.258 68.1738 196.562 68.5977 194.897C75.3789 196.351 82.2207 197.35 89.1533 197.864C93.1494 203.525 97.5391 208.944 102.231 214.03C101.263 214.969 100.294 215.877 99.3252 216.725ZM106.742 209.368C103.654 206.038 100.566 202.345 97.5693 198.379C100.476 198.5 103.473 198.561 106.5 198.561C109.618 198.561 112.676 198.5 115.703 198.349C112.918 202.193 109.921 205.856 106.742 209.368ZM146.31 218.45C146.037 222.144 144.221 225.595 141.314 227.926C136.501 230.711 126.238 227.078 115.158 217.572C113.887 216.482 112.615 215.302 111.313 214.091C115.945 208.975 120.214 203.556 124.089 197.864C131.021 197.289 137.924 196.229 144.735 194.686C145.038 195.927 145.311 197.168 145.553 198.379C147.036 204.918 147.278 211.729 146.31 218.45ZM151.819 185.906C150.972 186.179 150.124 186.451 149.246 186.693C147.127 180.094 144.523 173.645 141.526 167.379C144.433 161.203 146.885 154.846 148.943 148.337C150.518 148.791 152.031 149.275 153.484 149.76C167.592 154.604 177.491 161.809 177.491 167.318C177.491 173.252 166.926 180.911 151.819 185.906ZM106.5 181.365C114.159 181.365 120.365 175.159 120.365 167.5C120.365 159.841 114.159 153.635 106.5 153.635C98.8408 153.635 92.6348 159.841 92.6348 167.5C92.6348 175.159 98.8408 181.365 106.5 181.365Z" fill="#1DC0E3"/>
</svg>
