<svg width="256" height="287" viewBox="0 0 256 287" fill="none" xmlns="http://www.w3.org/2000/svg">
<path d="M203.24 231.531L174.509 143.097L249.718 88.4565H156.752L128.019 0.0255768L128.01 0.00170512H220.991L249.73 88.448L249.732 88.4463L249.756 88.4326C266.446 139.743 249.256 198.103 203.24 231.531ZM52.7908 231.531L52.7669 231.548L127.995 286.203L203.24 231.533L128.019 176.877L52.7908 231.531ZM6.29389 88.4343C-11.2757 142.522 9.11927 199.835 52.7755 231.542L52.7823 231.514L81.5169 143.085L6.32458 88.4548H99.269L128.004 0.0238717L128.01 0H35.0252L6.29389 88.4343Z" fill="#D71111"/>
</svg>
